<svg width="35" height="33" viewBox="0 0 35 33" fill="none" xmlns="http://www.w3.org/2000/svg">
<g clip-path="url(#clip0_241_210)">
<path d="M12.3958 23.375C5.56063 23.375 0 18.1321 0 11.6875C0 5.24287 5.56063 0 12.3958 0C19.231 0 24.7917 5.24287 24.7917 11.6875C24.7917 18.1321 19.231 23.375 12.3958 23.375ZM12.3958 1.375C6.36417 1.375 1.45833 6.0005 1.45833 11.6875C1.45833 17.3745 6.36417 22 12.3958 22C18.4275 22 23.3333 17.3745 23.3333 11.6875C23.3333 6.0005 18.4275 1.375 12.3958 1.375Z" fill="black"/>
<path d="M34.2709 33C34.0842 33 33.8975 32.9326 33.7546 32.7993L20.1294 19.9526C19.845 19.6845 19.845 19.2486 20.1294 18.9805C20.4138 18.7124 20.8761 18.7124 21.1605 18.9805L34.7857 31.8271C35.07 32.0953 35.07 32.5311 34.7857 32.7993C34.6442 32.9326 34.4575 33 34.2709 33Z" fill="black"/>
</g>
<defs>
<clipPath id="clip0_241_210">
<rect width="35" height="33" fill="white"/>
</clipPath>
</defs>
</svg>
